<?xml version="1.0" standalone="no"?>
<!DOCTYPE svg PUBLIC "-//W3C//DTD SVG 20010904//EN"
 "http://www.w3.org/TR/2001/REC-SVG-20010904/DTD/svg10.dtd">
<svg version="1.0" xmlns="http://www.w3.org/2000/svg"
 width="900.000000pt" height="512.000000pt" viewBox="0 0 900.000000 512.000000"
 preserveAspectRatio="xMidYMid meet">

<g transform="translate(0.000000,512.000000) scale(0.100000,-0.100000)"
fill="#aaa" stroke="none">
<path d="M6778 5106 c-20 -7 -54 -27 -75 -44 -21 -17 -381 -374 -800 -794
l-763 -763 0 500 c0 322 -4 514 -11 538 -6 21 -26 56 -45 77 -100 110 -278 87
-344 -45 l-25 -50 -3 -765 c-2 -558 0 -780 8 -819 17 -77 84 -144 161 -161 39
-8 261 -10 819 -8 l765 3 50 25 c132 66 155 244 45 344 -21 19 -56 39 -77 45
-24 7 -216 11 -538 11 l-500 0 773 773 c425 424 786 792 802 816 73 109 38
244 -79 304 -60 30 -106 33 -163 13z"/>
<path d="M2528 2336 c-94 -25 -148 -89 -156 -182 -8 -101 55 -198 145 -223 24
-7 216 -11 538 -11 l500 0 -773 -772 c-425 -425 -786 -793 -802 -817 -69 -103
-37 -241 70 -301 56 -31 147 -34 200 -6 19 10 389 372 823 805 l787 786 0
-500 c0 -322 4 -514 11 -538 6 -21 26 -56 45 -77 100 -110 278 -87 344 45 l25
50 3 765 c2 558 0 780 -8 819 -16 71 -83 142 -152 159 -69 18 -1535 16 -1600
-2z"/>
</g>
</svg>
