<?xml version="1.0" standalone="no"?>
<!DOCTYPE svg PUBLIC "-//W3C//DTD SVG 20010904//EN"
 "http://www.w3.org/TR/2001/REC-SVG-20010904/DTD/svg10.dtd">
<svg version="1.0" xmlns="http://www.w3.org/2000/svg"
 width="360.000000pt" height="360.000000pt" viewBox="0 0 360.000000 360.000000"
 preserveAspectRatio="xMidYMid meet">

<g transform="translate(0.000000,360.000000) scale(0.100000,-0.100000)"
fill="#fff" stroke="none">
<path d="M595 3135 c-51 -18 -120 -91 -134 -141 -15 -55 -15 -714 0 -765 28
-91 114 -153 214 -153 72 0 111 18 178 82 l47 47 198 -198 c108 -108 203 -197
210 -197 6 0 12 -4 12 -10 0 -5 -6 -10 -12 -10 -7 0 -102 -89 -210 -197 l-198
-198 -47 47 c-67 64 -106 82 -178 82 -99 0 -191 -66 -215 -154 -14 -50 -13
-714 1 -765 15 -53 91 -129 144 -144 51 -14 715 -15 765 -1 88 24 154 116 154
215 0 72 -18 111 -82 178 l-47 47 198 198 c108 108 197 203 197 210 0 6 5 12
10 12 6 0 10 -6 10 -12 0 -7 89 -102 197 -210 l198 -198 -47 -47 c-77 -80 -99
-146 -78 -235 16 -65 84 -137 146 -156 55 -16 711 -17 769 -1 53 15 129 91
144 144 16 58 15 714 -1 769 -19 62 -91 130 -156 146 -89 21 -155 -1 -235 -78
l-47 -47 -198 198 c-108 108 -203 197 -210 197 -6 0 -12 5 -12 10 0 6 6 10 12
10 7 0 102 89 210 197 l198 198 47 -47 c67 -64 106 -82 178 -82 99 0 191 66
215 154 14 50 13 714 -1 765 -15 53 -91 129 -144 144 -51 14 -715 15 -765 1
-88 -24 -154 -116 -154 -215 0 -72 18 -111 82 -178 l47 -47 -198 -198 c-108
-108 -197 -203 -197 -210 0 -6 -4 -12 -10 -12 -5 0 -10 6 -10 12 0 7 -89 102
-197 210 l-198 198 47 47 c77 80 99 146 78 235 -16 65 -84 137 -146 156 -63
18 -725 16 -779 -3z m618 -299 c-83 -84 -83 -84 -83 -137 l0 -52 197 -199 197
-198 -87 -87 -87 -87 -198 197 -199 197 -52 0 c-53 0 -53 0 -137 -83 l-84 -83
0 308 0 308 308 0 308 0 -83 -84z m1717 -227 l0 -312 -90 87 c-89 85 -90 86
-141 86 l-52 0 -199 -197 -198 -197 -87 87 -87 87 195 197 c248 251 249 252
116 390 l-80 83 312 0 311 0 0 -311z m-1120 -401 c0 -17 381 -398 397 -398 7
0 13 -4 13 -10 0 -5 -6 -10 -12 -10 -17 0 -398 -381 -398 -397 0 -7 -4 -13
-10 -13 -5 0 -10 6 -10 13 0 16 -381 397 -398 397 -6 0 -12 5 -12 10 0 6 6 10
12 10 17 0 398 381 398 397 0 7 5 13 10 13 6 0 10 -6 10 -12z m-370 -773 l84
-85 -197 -198 -197 -199 0 -52 c0 -51 1 -52 86 -141 l87 -90 -312 0 -311 0 0
311 0 312 83 -80 c138 -133 140 -132 387 113 107 107 197 194 200 194 3 0 43
-38 90 -85z m1009 -109 c250 -247 249 -246 393 -108 l88 85 -2 -314 -3 -314
-314 -3 -314 -2 85 88 c139 144 139 143 -111 395 l-195 197 84 85 c47 47 87
85 89 85 3 0 93 -87 200 -194z"/>
</g>
</svg>
