<?xml version="1.0" standalone="no"?>
<!DOCTYPE svg PUBLIC "-//W3C//DTD SVG 20010904//EN"
 "http://www.w3.org/TR/2001/REC-SVG-20010904/DTD/svg10.dtd">
<svg version="1.0" xmlns="http://www.w3.org/2000/svg"
 width="70.000000pt" height="47.000000pt" viewBox="0 0 70.000000 47.000000"
 preserveAspectRatio="xMidYMid meet">

<g transform="translate(0.000000,47.000000) scale(0.100000,-0.100000)"
fill="#fff" stroke="none">
<path d="M163 372 c-141 -84 -163 -100 -163 -122 0 -22 23 -38 172 -127 94
-56 175 -100 180 -97 4 3 8 41 8 85 0 46 4 79 10 79 6 0 71 -36 145 -80 74
-44 141 -83 150 -86 13 -5 15 21 15 220 0 198 -2 226 -16 226 -8 0 -76 -36
-150 -80 -74 -44 -138 -80 -144 -80 -6 0 -10 33 -10 80 0 70 -2 80 -17 80 -10
0 -91 -44 -180 -98z"/>
</g>
</svg>
